<svg xmlns="http://www.w3.org/2000/svg" width="64" height="64"><linearGradient id="a" gradientUnits="userSpaceOnUse" x1="88" y1="-142" x2="88" y2="-82" gradientTransform="matrix(1 0 0 -1 -56 -80)"><stop offset="0" stop-color="red"/><stop offset="1" stop-color="#ffc000"/></linearGradient><circle fill="url(#a)" cx="32" cy="32" r="30"/><ellipse fill="#1A1626" cx="22" cy="31.072" rx="4" ry="5"/><ellipse fill="#1A1626" cx="42" cy="31.072" rx="4" ry="5"/><path fill="#1A1626" d="M24.893 49.229c3.663-2.574 10.26-2.744 14.215 0 .916.633 2.434.193 2.094-.547-3.457-7.537-14.952-7.521-18.402 0-.341.74 1.181 1.185 2.093.547z"/><path fill="#C92400" d="M22.76 18.885c-11.014-2.827-7.488 2.472 1.524 5.996 5.085 1.989 5.727-4.138-1.524-5.996zM41.238 18.901c-7.25 1.859-6.609 7.985-1.523 5.995 9.015-3.525 12.541-8.824 1.523-5.995z"/></svg>