<svg xmlns="http://www.w3.org/2000/svg" width="64" height="64"><path fill="#0098F2" d="M46.305 56.826H17.092c-9.139 0-19.611 1.061-16.547 2.584 4.178 2.078 21.021.209 14.207 2.74-6.104 2.268 10.357 2.445 16.348.557 4.674-1.473 14.311 1.992 17.908-1.281 2.969-2.699 10.186-1.004 13.844-2.016 5-1.381-7.409-2.584-16.547-2.584z"/><linearGradient id="a" gradientUnits="userSpaceOnUse" x1="31.69" y1="60.001" x2="31.69" y2=".002"><stop offset="0" stop-color="#ff7b00"/><stop offset=".324" stop-color="#ffae00"/><stop offset=".621" stop-color="#ffd600"/><stop offset=".856" stop-color="#fe0"/><stop offset="1" stop-color="#fff700"/></linearGradient><circle fill="url(#a)" cx="31.689" cy="30.001" r="30"/><path fill="#1A1626" d="M38.689 40.12c0 9.674-14 9.674-14 0v-1.238c0-9.674 14-9.674 14 0v1.238z"/><linearGradient id="b" gradientUnits="userSpaceOnUse" x1="27.021" y1="34.483" x2="36.357" y2="34.483"><stop offset="0" stop-color="#cfd7e6"/><stop offset=".037" stop-color="#dae0ec"/><stop offset=".126" stop-color="#eef1f6"/><stop offset=".215" stop-color="#fbfcfd"/><stop offset=".3" stop-color="#fff"/><stop offset=".7" stop-color="#fff"/><stop offset=".785" stop-color="#fbfcfd"/><stop offset=".874" stop-color="#eef1f6"/><stop offset=".963" stop-color="#dae0ec"/><stop offset="1" stop-color="#cfd7e6"/></linearGradient><path fill="url(#b)" d="M27.021 36.001c.932-1.813 2.674-3.035 4.666-3.035 1.996 0 3.736 1.221 4.67 3.035h-9.336z"/><path fill="#FD7383" d="M28.021 44.593c1.061.799 2.283 1.266 3.668 1.266s2.607-.467 3.668-1.266c0 0-1.834-2.338-3.668-.82-1.834-1.518-3.668.82-3.668.82z"/><path fill="#1A1626" d="M37.426 22.7c2.971-2.193 8.32-2.338 11.529 0 .742.539 1.973.164 1.697-.465-2.805-6.422-12.127-6.408-14.926 0-.275.629.962 1.01 1.7.465zM25.955 22.7c-2.971-2.193-8.32-2.338-11.531 0-.742.539-1.973.164-1.697-.465 2.805-6.422 12.127-6.408 14.926 0 .275.629-.96 1.01-1.698.465z"/><path fill="#75D6FF" d="M41.686 58.406c0 .497-.744.497-.744 0-.001-.496.744-.496.744 0z"/><linearGradient id="c" gradientUnits="userSpaceOnUse" x1="49.223" y1="18.899" x2="41.086" y2="59.107"><stop offset=".049" stop-color="#0078bd"/><stop offset=".06" stop-color="#2e94cd"/><stop offset=".073" stop-color="#5aafdc"/><stop offset=".087" stop-color="#7ec5e9"/><stop offset=".1" stop-color="#9bd6f2"/><stop offset=".113" stop-color="#afe2f9"/><stop offset=".126" stop-color="#bbeafe"/><stop offset=".139" stop-color="#bfecff"/><stop offset=".152" stop-color="#b0e8ff"/><stop offset=".176" stop-color="#9ae1ff"/><stop offset=".204" stop-color="#8adcff"/><stop offset=".239" stop-color="#7ed9ff"/><stop offset=".288" stop-color="#77d7ff"/><stop offset=".424" stop-color="#75d6ff"/><stop offset=".54" stop-color="#4abffa"/><stop offset=".665" stop-color="#22aaf6"/><stop offset=".764" stop-color="#099df3"/><stop offset=".824" stop-color="#0098f2"/></linearGradient><path fill="url(#c)" d="M41.092 21.193c2.293 14.784 1.572 23.713-.598 38.495 2.313-.676 5.508.331 7.984-.945 3.355-9.811 3.818-26.022.941-35.831-1.382-2.408-7.634-3.311-8.327-1.719z"/><path fill="#0098F2" d="M50.266 56.953c0 2.078-3.119 2.078-3.119 0-.001-2.08 3.119-2.08 3.119 0z"/><path fill="#0098F2" d="M52.236 57.639c0 1.595-2.393 1.595-2.393 0s2.393-1.595 2.393 0z"/><radialGradient id="d" cx="213.352" cy="117.803" r="5.522" gradientTransform="matrix(-1.1164 0 0 1.2807 283.421 -91.773)" gradientUnits="userSpaceOnUse"><stop offset=".188" stop-color="#fff"/><stop offset=".952" stop-color="#fff" stop-opacity="0"/></radialGradient><path fill="url(#d)" d="M38.723 59.002h13.023c0-9.96-13.023-9.96-13.023 0z"/><path fill="#75D6FF" d="M43.145 55.393c0 .756-1.135.756-1.135 0 0-.755 1.135-.755 1.135 0z"/><linearGradient id="e" gradientUnits="userSpaceOnUse" x1="45.852" y1="59.532" x2="45.852" y2="56.442"><stop offset=".067" stop-color="#0098f2"/><stop offset=".321" stop-color="#1ca7f5"/><stop offset=".868" stop-color="#63ccfd"/><stop offset="1" stop-color="#75d6ff"/></linearGradient><path fill="url(#e)" d="M50.029 58.524c-.014-1.371-1.609-1.416-2.309-.629-.424-1.755-2.865-1.92-3.674-.497-.643-.787-2.68-.572-2.91.613-.498-.289-1.74.408-1.523 1.147.127.436 12.305.546 12.463.023.34-1.112-1.699-1.494-2.047-.657z"/><path fill="#75D6FF" d="M50.816 57.462c0 .369-.555.369-.555 0 .001-.368.555-.368.555 0zM45.563 53.825c0 .369-.553.369-.553 0 0-.368.553-.368.553 0zM46.467 58.281c0 .369-.555.369-.555 0s.555-.369.555 0zM52.461 58.558c0 .369-.553.369-.553 0s.553-.37.553 0zM47.287 55.678c0 .547-.82.547-.82 0s.82-.547.82 0zM42.42 58.968c0 .547-.82.547-.82 0s.82-.547.82 0z"/><linearGradient id="f" gradientUnits="userSpaceOnUse" x1="210.397" y1="18.898" x2="202.259" y2="59.107" gradientTransform="matrix(-1 0 0 1 224.555 0)"><stop offset=".049" stop-color="#0078bd"/><stop offset=".06" stop-color="#2e94cd"/><stop offset=".073" stop-color="#5aafdc"/><stop offset=".087" stop-color="#7ec5e9"/><stop offset=".1" stop-color="#9bd6f2"/><stop offset=".113" stop-color="#afe2f9"/><stop offset=".126" stop-color="#bbeafe"/><stop offset=".139" stop-color="#bfecff"/><stop offset=".152" stop-color="#b0e8ff"/><stop offset=".176" stop-color="#9ae1ff"/><stop offset=".204" stop-color="#8adcff"/><stop offset=".239" stop-color="#7ed9ff"/><stop offset=".288" stop-color="#77d7ff"/><stop offset=".424" stop-color="#75d6ff"/><stop offset=".54" stop-color="#4abffa"/><stop offset=".665" stop-color="#22aaf6"/><stop offset=".764" stop-color="#099df3"/><stop offset=".824" stop-color="#0098f2"/></linearGradient><path fill="url(#f)" d="M22.289 21.193c-2.295 14.784-1.572 23.713.598 38.495-2.313-.676-5.51.331-7.986-.945-3.354-9.811-3.816-26.023-.941-35.831 1.382-2.408 7.634-3.311 8.329-1.719z"/><path fill="#0098F2" d="M13.127 56.953c0 2.078 3.117 2.078 3.117 0 0-2.08-3.117-2.08-3.117 0z"/><path fill="#0098F2" d="M11.156 57.639c0 1.595 2.391 1.595 2.391 0s-2.391-1.595-2.391 0z"/><radialGradient id="g" cx="68.994" cy="117.803" r="5.521" gradientTransform="matrix(1.1164 0 0 1.2807 -58.867 -91.773)" gradientUnits="userSpaceOnUse"><stop offset=".188" stop-color="#fff"/><stop offset=".952" stop-color="#fff" stop-opacity="0"/></radialGradient><path fill="url(#g)" d="M24.67 59.002H11.646c0-9.96 13.024-9.96 13.024 0z"/><path fill="#75D6FF" d="M19.223 55.421c0 .756 1.135.756 1.135 0s-1.135-.756-1.135 0z"/><linearGradient id="h" gradientUnits="userSpaceOnUse" x1="207.014" y1="59.532" x2="207.014" y2="56.442" gradientTransform="matrix(-1 0 0 1 224.555 0)"><stop offset=".067" stop-color="#0098f2"/><stop offset=".321" stop-color="#1ca7f5"/><stop offset=".868" stop-color="#63ccfd"/><stop offset="1" stop-color="#75d6ff"/></linearGradient><path fill="url(#h)" d="M13.361 58.524c.016-1.371 1.611-1.416 2.311-.629.424-1.755 2.865-1.92 3.674-.497.641-.787 2.68-.572 2.91.613.498-.289 1.74.408 1.523 1.147-.129.436-12.305.546-12.463.023-.339-1.112 1.698-1.494 2.045-.657z"/><path fill="#75D6FF" d="M14.186 56.442c0 .369.555.369.555 0s-.555-.369-.555 0zM16.193 55.13c0 .37.555.37.555 0 0-.368-.555-.368-.555 0zM20.223 58.511c0 .369.553.369.553 0-.001-.368-.553-.368-.553 0zM11 58.511c0 .369.555.369.555 0s-.555-.369-.555 0zM16.748 58.101c0 .547.82.547.82 0s-.82-.547-.82 0z"/><path opacity=".3" fill="#0098F2" d="M44.645 21.857c1.5 9.241 1.516 14.515 1.127 24.661-.018.436.15-.151.322-1.317.924-6.298.689-16.969-.867-23.063-.233-.909-.711-1.078-.582-.281zM48.047 24.217c1.607 8.607 1.688 13.535 1.422 23.024-.012.407.148-.145.305-1.239.85-5.901.484-15.871-1.143-21.534-.242-.846-.723-.994-.584-.251zM43.156 25.758c1.195 8.738 1.039 13.698.32 23.232-.031.409.156-.138.363-1.23 1.129-5.895 1.244-15.944-.111-21.723-.201-.861-.675-1.035-.572-.279zM47.619 31.684c.459 8.305-.111 12.948-1.625 21.837-.064.381.166-.117.465-1.125 1.617-5.438 2.572-14.861 1.707-20.4-.129-.827-.586-1.03-.547-.312zM18.734 21.857c-1.498 9.241-1.514 14.515-1.125 24.661.016.436-.152-.151-.322-1.317-.924-6.298-.689-16.969.865-23.063.235-.909.711-1.078.582-.281zM15.334 24.217c-1.607 8.607-1.689 13.535-1.424 23.024.012.407-.148-.145-.305-1.239-.848-5.901-.484-15.871 1.145-21.534.24-.846.723-.994.584-.251zM20.223 25.758c-1.195 8.738-1.039 13.698-.32 23.232.033.409-.154-.138-.363-1.23-1.129-5.895-1.244-15.944.111-21.723.201-.861.675-1.035.572-.279zM15.76 31.684c-.459 8.305.111 12.948 1.625 21.837.066.381-.166-.117-.465-1.125-1.617-5.438-2.572-14.861-1.705-20.4.127-.827.586-1.03.545-.312z"/><path fill="#D69600" d="M18.563 8.692c-9.246 6.62-2.92 7.324 5.572 2.686 4.793-2.615.511-7.045-5.572-2.686zM44.814 8.708c-6.086-4.359-10.365.07-5.572 2.686 8.496 4.64 14.822 3.934 5.572-2.686z"/></svg>