<svg xmlns="http://www.w3.org/2000/svg" width="64" height="64"><radialGradient id="a" cx="27.302" cy="-202.446" r="39.742" gradientTransform="matrix(1 0 0 -1 0 -161.735)" gradientUnits="userSpaceOnUse"><stop offset=".436" stop-color="#ffc940"/><stop offset=".686" stop-color="#ffc73e"/><stop offset=".797" stop-color="#ffc039"/><stop offset=".88" stop-color="#ffb330"/><stop offset=".903" stop-color="#ffae2c"/></radialGradient><path fill="url(#a)" d="M38.242 41.979c2.652 5.252 3.473 10.254.307 15.578-3.951 6.645-9.172 2.738-8.887-.17 1.42-14.604-6.56-21.533-8.759-25.279-1.178-2.01-9.693-1.365-9.693-1.365s-5.184-12.879 0-24.287c4.934.83 9.309.729 9.693.504 9.905-5.809 22.583-3.125 22.583-3.125l2.961 29.174s-12.156 1.156-8.205 8.97z"/><path fill="#DB942D" d="M37.898 3.995c-.473-.018-9.967-.469-16.617 3.609-.145.088-2.605.766-9.619-.316-4.074 9.598-.787 20.26.057 22.672 6.475-.398 8.387.1 9.828 1.768 4.794 5.545 10.048 13.506 8.858 25.732-.215 2.217 3.979 5.637 7.5-.285 2.682-4.512 2.58-9.094-.332-14.857-2.432-4.807.609-7.697 4.537-9.084.33.42.674.828 1.01 1.244-3.281 1.041-6.014 3.6-4.213 7.162 3.17 6.275 3.258 11.301.283 16.303-4.396 7.391-10.643 3.143-10.274-.629 1.133-11.645-3.509-18.76-8.659-24.826-1.053-1.244-6.605-1.199-9.537-.957 0 0-6.152-14.291.045-25.908 6.496 1.084 9.664.686 9.82.654 8.124-4.588 17.728-3.775 18.552-3.723-.401.49-.815.97-1.239 1.441z"/><path fill="#DB942D" d="M39.502 22.075l.4-1.559c-1.926-3.822-10.766-7.35-17.98-3.803 6.874-2.454 15.932 1.595 17.58 5.362zM49.256 2.632c-2.613-.609-6.877-.801-9.057-.475-1.652.246-3.055.934-3.76 1.559-1.918 1.699-2.246 6.842 3.086 6.842h10.037c4.594 0 3.581-7.022-.306-7.926z"/><linearGradient id="b" gradientUnits="userSpaceOnUse" x1="34.352" y1="-172.022" x2="49.003" y2="-172.022" gradientTransform="matrix(.9875 0 0 -.9725 4.274 -160.997)"><stop offset=".255" stop-color="#ffae2c"/><stop offset=".442" stop-color="#ffc940"/></linearGradient><path fill="url(#b)" d="M48.625 4.021c-1.795-.354-6.592-.672-8.275-.379-1.061.184-2.318.602-2.773 1.006-1.236 1.094-1.6 4.412 1.838 4.412h9.988c2.962 0 1.839-4.524-.778-5.039z"/><path fill="#DB942D" d="M49.635 9.05H38.348c-6.036 0-6.036 9.291 0 9.291h11.287c6.031 0 6.031-9.291 0-9.291z"/><linearGradient id="c" gradientUnits="userSpaceOnUse" x1="32.176" y1="-271.128" x2="49.983" y2="-271.128" gradientTransform="matrix(.9875 0 0 -.7978 4.274 -202.61)"><stop offset=".255" stop-color="#ffae2c"/><stop offset=".442" stop-color="#ffc940"/></linearGradient><path fill="url(#c)" d="M49.742 10.464h-11.49c-4.051 0-4.051 6.463 0 6.463h11.49c4.076 0 4.076-6.463 0-6.463z"/><path fill="#DB942D" d="M51.697 25.183H38.406c-4.197 0-4.383 5.439-1.807 7.865.684.643 2.605 1.461 4.379 1.771 2.771.49 7.789.584 11.232-.207 5.21-1.197 5.058-9.429-.513-9.429z"/><linearGradient id="d" gradientUnits="userSpaceOnUse" x1="9.548" y1="-196.591" x2="28.63" y2="-196.591" gradientTransform="matrix(.9528 0 0 -.9725 27.798 -160.997)"><stop offset=".255" stop-color="#ffae2c"/><stop offset=".442" stop-color="#ffc940"/></linearGradient><path fill="url(#d)" d="M51.713 26.683H38.451c-2.939 0-2.389 4.373-.457 5.506.729.426 2.092.977 3.775 1.242 1.766.277 6.438.504 10.021-.26 3.636-.775 3.823-6.488-.077-6.488z"/><path fill="#DB942D" d="M51.168 16.843H38.215c-6.395 0-6.395 9.842 0 9.842h12.953c6.391 0 6.391-9.842 0-9.842z"/><linearGradient id="e" gradientUnits="userSpaceOnUse" x1="31.008" y1="-281.24" x2="50.879" y2="-281.24" gradientTransform="matrix(.9875 0 0 -.7978 4.274 -202.61)"><stop offset=".255" stop-color="#ffae2c"/><stop offset=".442" stop-color="#ffc940"/></linearGradient><path fill="url(#e)" d="M51.279 18.341H38.111c-4.289 0-4.289 6.844 0 6.844h13.168c4.319 0 4.319-6.844 0-6.844z"/></svg>