<svg xmlns="http://www.w3.org/2000/svg" width="64" height="64"><linearGradient id="a" gradientUnits="userSpaceOnUse" x1="32.001" y1="62" x2="32.001" y2="2.001"><stop offset="0" stop-color="#ff7b00"/><stop offset=".242" stop-color="#fb6b00"/><stop offset=".711" stop-color="#f04200"/><stop offset="1" stop-color="#e82500"/></linearGradient><path fill="url(#a)" d="M53.371 19.292c-1.205 5.751-6.008 7.191-6.008 7.191S46.16 9.876 32.3 2c.548 8.376-7.366 12.563-10.825 19.622-.932-5.322-4.067-9.917-9.763-13 1.465 5.667-2.357 10.119-5.043 20C-.15 53.704 15.047 62 31.982 62c28.892 0 32.083-27.243 21.389-42.708z"/><linearGradient id="b" gradientUnits="userSpaceOnUse" x1="32.529" y1="62" x2="32.529" y2="10.198"><stop offset="0" stop-color="#fa0"/><stop offset=".175" stop-color="#ffa400"/><stop offset=".418" stop-color="#ff9200"/><stop offset=".701" stop-color="#ff7400"/><stop offset="1" stop-color="#ff4d00"/></linearGradient><path fill="url(#b)" d="M53.496 26.717c-3.733 6.06-8.798 6.076-8.798 6.076s-1.217-12.834-10.055-22.596C32.065 21.225 23.419 21.588 19.454 32c-1.491-4.5.643-8.878-4.813-15.795 1.627 8.833-3.955 12.667-5.354 22.583C7.485 51.578 19.517 62 31.982 62c21.623 0 28.089-20.808 21.514-35.283z"/><linearGradient id="c" gradientUnits="userSpaceOnUse" x1="-318.325" y1="62" x2="-318.325" y2="17.544" gradientTransform="matrix(-1 0 0 1 -286.236 0)"><stop offset="0" stop-color="#ffb500"/><stop offset=".087" stop-color="#ffba00"/><stop offset=".674" stop-color="#ffda00"/><stop offset="1" stop-color="#ffe600"/></linearGradient><path fill="url(#c)" d="M31.982 62C20.021 62 7.837 46.459 14.949 31.376c.73 6.438 5.783 6.875 5.783 6.875 3.592-12.438 11.797-12.875 14.733-20.708 4.625 7.834 6.568 21.516 6.568 21.516s4.693-.307 8.753-4.474C53.425 46.46 46.501 62 31.982 62z"/><linearGradient id="d" gradientUnits="userSpaceOnUse" x1="-317.58" y1="60" x2="-317.58" y2="25.752" gradientTransform="matrix(-1 0 0 1 -286.236 0)"><stop offset=".242" stop-color="#fff2ab"/><stop offset=".36" stop-color="#fff1a5"/><stop offset=".524" stop-color="#ffef92"/><stop offset=".715" stop-color="#ffec74"/><stop offset=".926" stop-color="#ffe74b"/><stop offset="1" stop-color="#ffe53b"/></linearGradient><path fill="url(#d)" d="M32.32 60c-9.443 0-15.849-11.312-15.199-16.937 0 0 6.97 7.689 7.132.636.133-5.823 3.299-12.761 11.151-17.948-1.644 6.874 3.744 10.614 2.808 20 0 0 3.495 1.728 6.689-2.438C47.329 49.597 43.618 60 32.32 60z"/></svg>