<svg xmlns="http://www.w3.org/2000/svg" width="64" height="64"><radialGradient id="a" cx="27.301" cy="23.289" r="39.742" gradientUnits="userSpaceOnUse"><stop offset=".436" stop-color="#ffc940"/><stop offset=".686" stop-color="#ffc73e"/><stop offset=".797" stop-color="#ffc039"/><stop offset=".88" stop-color="#ffb330"/><stop offset=".903" stop-color="#ffae2c"/></radialGradient><path fill="url(#a)" d="M38.241 22.021c2.652-5.252 3.473-10.254.307-15.578-3.951-6.645-9.171-2.738-8.886.17 1.42 14.604-6.56 21.533-8.759 25.279-1.178 2.01-9.693 1.365-9.693 1.365s-5.183 12.879 0 24.287c4.934-.83 9.309-.729 9.693-.504 9.906 5.809 22.583 3.125 22.583 3.125l2.961-29.174c-.001 0-12.157-1.156-8.206-8.97z"/><path fill="#DB942D" d="M37.897 60.005c-.473.018-9.966.469-16.616-3.609-.145-.088-2.605-.766-9.619.316-4.073-9.598-.787-20.26.057-22.672 6.475.398 8.387-.1 9.828-1.768 4.794-5.545 10.048-13.506 8.859-25.732-.215-2.217 3.978-5.637 7.5.285 2.682 4.512 2.58 9.094-.332 14.857-2.432 4.807.609 7.697 4.537 9.084.33-.42.674-.828 1.01-1.244-3.281-1.041-6.014-3.6-4.213-7.162 3.17-6.275 3.258-11.301.283-16.303-4.396-7.391-10.642-3.143-10.273.629 1.133 11.645-3.509 18.76-8.66 24.826-1.053 1.244-6.605 1.199-9.537.957 0 0-6.151 14.291.045 25.908 6.496-1.084 9.664-.686 9.82-.654 8.125 4.588 17.728 3.775 18.552 3.723-.403-.49-.817-.97-1.241-1.441z"/><path fill="#DB942D" d="M39.501 41.925l.4 1.559c-1.926 3.822-10.765 7.35-17.979 3.803 6.874 2.454 15.931-1.595 17.579-5.362zM49.255 61.368c-2.613.609-6.877.801-9.057.475-1.652-.246-3.055-.934-3.76-1.559-1.918-1.699-2.246-6.842 3.086-6.842h10.037c4.594 0 3.581 7.022-.306 7.926z"/><linearGradient id="b" gradientUnits="userSpaceOnUse" x1="34.352" y1="60.098" x2="49.003" y2="60.098" gradientTransform="matrix(.9875 0 0 .9725 4.273 -.738)"><stop offset=".255" stop-color="#ffae2c"/><stop offset=".442" stop-color="#ffc940"/></linearGradient><path fill="url(#b)" d="M48.624 59.979c-1.795.354-6.592.672-8.275.379-1.061-.184-2.318-.602-2.773-1.006-1.236-1.094-1.6-4.412 1.838-4.412h9.988c2.962 0 1.839 4.524-.778 5.039z"/><path fill="#DB942D" d="M49.634 54.95H38.347c-6.035 0-6.035-9.291 0-9.291h11.287c6.031 0 6.031 9.291 0 9.291z"/><linearGradient id="c" gradientUnits="userSpaceOnUse" x1="32.175" y1="11.82" x2="49.983" y2="11.82" gradientTransform="matrix(.9875 0 0 .7978 4.273 40.874)"><stop offset=".255" stop-color="#ffae2c"/><stop offset=".442" stop-color="#ffc940"/></linearGradient><path fill="url(#c)" d="M49.741 53.536h-11.49c-4.051 0-4.051-6.463 0-6.463h11.49c4.076 0 4.076 6.463 0 6.463z"/><path fill="#DB942D" d="M51.696 38.817H38.405c-4.197 0-4.383-5.439-1.807-7.865.684-.643 2.605-1.461 4.379-1.771 2.771-.49 7.789-.584 11.232.207 5.21 1.197 5.058 9.429-.513 9.429z"/><linearGradient id="d" gradientUnits="userSpaceOnUse" x1="9.546" y1="35.528" x2="28.629" y2="35.528" gradientTransform="matrix(.9528 0 0 .9725 27.799 -.738)"><stop offset=".255" stop-color="#ffae2c"/><stop offset=".442" stop-color="#ffc940"/></linearGradient><path fill="url(#d)" d="M51.712 37.317H38.45c-2.939 0-2.389-4.373-.457-5.506.729-.426 2.092-.977 3.775-1.242 1.766-.277 6.438-.504 10.021.26 3.636.775 3.823 6.488-.077 6.488z"/><path fill="#DB942D" d="M51.167 47.157H38.214c-6.394 0-6.394-9.842 0-9.842h12.953c6.391 0 6.391 9.842 0 9.842z"/><linearGradient id="e" gradientUnits="userSpaceOnUse" x1="31.007" y1="1.708" x2="50.879" y2="1.708" gradientTransform="matrix(.9875 0 0 .7978 4.273 40.875)"><stop offset=".255" stop-color="#ffae2c"/><stop offset=".442" stop-color="#ffc940"/></linearGradient><path fill="url(#e)" d="M51.278 45.659H38.11c-4.289 0-4.289-6.844 0-6.844h13.168c4.319 0 4.319 6.844 0 6.844z"/></svg>