<svg xmlns="http://www.w3.org/2000/svg" width="64" height="64"><linearGradient id="a" gradientUnits="userSpaceOnUse" x1="31.836" y1="61.673" x2="31.836" y2="2"><stop offset="0" stop-color="#ff7b00"/><stop offset=".324" stop-color="#ffae00"/><stop offset=".621" stop-color="#ffd600"/><stop offset=".856" stop-color="#fe0"/><stop offset="1" stop-color="#fff700"/></linearGradient><circle fill="url(#a)" cx="31.836" cy="31.836" r="29.836"/><path fill="#1A1626" d="M42.086 20.643c-3.039 2.082-7.104 5.236-11.654 9.786-4.55 4.549-7.707 8.616-9.788 11.656-1.05 1.533-.685 3.308.461 4.329 5.768 5.141 14.531 5.535 22.689-2.623 8.157-8.158 7.76-16.917 2.62-22.686-1.021-1.147-2.796-1.512-4.328-.462z"/><path fill="#FD7383" d="M34.983 46.974s4.071-1.258 7.401-4.588c3.332-3.332 4.59-7.403 4.59-7.403s-4.107-.111-7.401 4.589c-4.7 3.294-4.59 7.402-4.59 7.402z"/><linearGradient id="b" gradientUnits="userSpaceOnUse" x1="-318.472" y1="-14.76" x2="-286.669" y2="-14.76" gradientTransform="rotate(-45.001 -76.118 -396.373)"><stop offset="0" stop-color="#cfd7e6"/><stop offset=".037" stop-color="#dae0ec"/><stop offset=".126" stop-color="#eef1f6"/><stop offset=".215" stop-color="#fbfcfd"/><stop offset=".3" stop-color="#fff"/><stop offset=".7" stop-color="#fff"/><stop offset=".785" stop-color="#fbfcfd"/><stop offset=".874" stop-color="#eef1f6"/><stop offset=".963" stop-color="#dae0ec"/><stop offset="1" stop-color="#cfd7e6"/></linearGradient><path fill="url(#b)" d="M42.912 22.508c-2.082 1.45-6.37 4.623-11.075 9.328-4.704 4.704-7.878 8.993-9.327 11.075-.903 1.303-.445 1.805.623 2.58.935.678 1.236.806 2.103-.037.795-.773 10.11-10.11 10.11-10.11s9.337-9.314 10.11-10.109c.844-.867.715-1.169.037-2.103-.776-1.069-1.278-1.527-2.581-.624z"/><radialGradient id="c" cx="58.344" cy="5.558" r="6.336" gradientTransform="matrix(-.9302 .367 .5791 1.4676 69.606 21.189)" gradientUnits="userSpaceOnUse"><stop offset=".43" stop-color="#66e4ff"/><stop offset=".551" stop-color="#61e0ff"/><stop offset=".694" stop-color="#52d5ff"/><stop offset=".849" stop-color="#3bc2ff"/><stop offset="1" stop-color="#1caaff"/></radialGradient><path fill="url(#c)" d="M13.959 55.73c-1.745-5.173 1.429-12.663 2.04-13.24.803-.757-.473 2.481 7.203 7.825 10.843 7.542-4.692 18.909-9.243 5.415z"/><radialGradient id="d" cx="-359.82" cy="67.49" r="4.103" gradientTransform="matrix(.5223 -.1203 .2534 1.101 186.98 -63.72)" gradientUnits="userSpaceOnUse"><stop offset="0" stop-color="#d4f2ff"/><stop offset=".552" stop-color="#d1f1ff" stop-opacity=".448"/><stop offset=".883" stop-color="#c9efff" stop-opacity=".117"/><stop offset="1" stop-color="#c4eeff" stop-opacity="0"/></radialGradient><path fill="url(#d)" d="M18.278 53.368c.575 2.495.08 4.738-1.103 5.012-1.183.271-2.608-1.53-3.183-4.023-.574-2.496-.081-4.738 1.104-5.011 1.184-.272 2.609 1.529 3.182 4.022z"/><radialGradient id="e" cx="-496.64" cy="-46.942" r="6.336" gradientTransform="matrix(.367 -.9302 1.4676 .5791 301.932 -416.234)" gradientUnits="userSpaceOnUse"><stop offset=".43" stop-color="#66e4ff"/><stop offset=".551" stop-color="#61e0ff"/><stop offset=".694" stop-color="#52d5ff"/><stop offset=".849" stop-color="#3bc2ff"/><stop offset="1" stop-color="#1caaff"/></radialGradient><path fill="url(#e)" d="M55.73 13.959c-5.174-1.745-12.663 1.429-13.24 2.04-.756.803 2.482-.473 7.826 7.204 7.541 10.842 18.908-4.693 5.414-9.244z"/><radialGradient id="f" cx="563.145" cy="-159.884" r="4.102" gradientTransform="matrix(-.1203 .5223 1.101 .2534 297.623 -237.499)" gradientUnits="userSpaceOnUse"><stop offset="0" stop-color="#d4f2ff"/><stop offset=".552" stop-color="#d1f1ff" stop-opacity=".448"/><stop offset=".883" stop-color="#c9efff" stop-opacity=".117"/><stop offset="1" stop-color="#c4eeff" stop-opacity="0"/></radialGradient><path fill="url(#f)" d="M53.369 18.278c2.494.575 4.737.08 5.01-1.102.273-1.185-1.529-2.609-4.023-3.183-2.494-.575-4.738-.081-5.01 1.104-.272 1.183 1.529 2.609 4.023 3.181z"/><path fill="#1A1626" d="M39.551 16.26c-3.409 1.097-9.763 3.744-12.929 5.444-.585.313-1.072-.134-.842-.772 1.57-4.275 2.893-8.361 4.357-13.284.271-.905 1.748-.605 1.752.379.021 2.629-.604 5.729-1.049 8 2.361-.742 5.926-1.453 8.584-1.561 1.051-.044.967 1.525.127 1.794zM14.468 39.424c.108-2.661.818-6.223 1.56-8.584-2.271.445-5.371 1.07-8 1.05-.984-.006-1.283-1.483-.378-1.752 4.922-1.465 9.008-2.788 13.283-4.358.639-.231 1.085.256.771.842-1.698 3.164-4.347 9.52-5.444 12.927-.269.842-1.839.926-1.792-.125z"/></svg>