<svg xmlns="http://www.w3.org/2000/svg" width="64" height="64"><linearGradient id="a" gradientUnits="userSpaceOnUse" x1="-211.915" y1="275.918" x2="-211.915" y2="276.918" gradientTransform="matrix(60 0 0 -60 12746.906 16617.063)"><stop offset="0" stop-color="#ff7b00"/><stop offset=".324" stop-color="#ffae00"/><stop offset=".621" stop-color="#ffd600"/><stop offset=".856" stop-color="#fe0"/><stop offset="1" stop-color="#fff700"/></linearGradient><circle fill="url(#a)" cx="32" cy="32" r="30"/><path fill="#1A1626" d="M26.741 25.048c-2.543 2.676-7.787 3.748-11.354 2.002-.826-.402-1.973.181-1.592.754 3.877 5.836 13.057 4.205 14.699-2.592.163-.669-1.12-.828-1.753-.164zM37.258 25.048c2.545 2.676 7.787 3.748 11.355 2.003.824-.403 1.971.18 1.59.753-3.877 5.836-13.055 4.205-14.699-2.592-.16-.669 1.121-.828 1.754-.164zM42 46.787c0 12.285-20 12.285-20 0v-1.572c0-12.286 20-12.286 20 0v1.572z"/><linearGradient id="b" gradientUnits="userSpaceOnUse" x1="25" y1="40" x2="39" y2="40"><stop offset="0" stop-color="#cfd7e6"/><stop offset=".037" stop-color="#dae0ec"/><stop offset=".126" stop-color="#eef1f6"/><stop offset=".215" stop-color="#fbfcfd"/><stop offset=".3" stop-color="#fff"/><stop offset=".7" stop-color="#fff"/><stop offset=".785" stop-color="#fbfcfd"/><stop offset=".874" stop-color="#eef1f6"/><stop offset=".963" stop-color="#dae0ec"/><stop offset="1" stop-color="#cfd7e6"/></linearGradient><path fill="url(#b)" d="M25 42a8.098 8.098 0 0 1 6.998-4 8.1 8.1 0 0 1 7.001 4H25z"/><path fill="#FD7383" d="M32 51.268c-3.842-.984-5.5 1.072-5.5 1.072C28.092 53.387 29.923 54 32 54c2.076 0 3.908-.613 5.5-1.66 0 0-1.658-2.057-5.5-1.072z"/><path fill="#99A8AE" d="M33.049 40.436a2.836 2.836 0 0 0-2.154-.822 3 3 0 0 0-.652.107 2.968 2.968 0 0 0-2.899-1.712c-1.012.064-1.967.621-2.695 1.566-1.594 2.072-3.314 3.922-4.723 5.328-.213-.873-.613-1.73-1.313-2.43a4.5 4.5 0 0 0-1.053-.781c-1.152-.617-2.006-.404-2.52-.117-1.232.693-1.313 2.07-1.404 3.664-.088 1.498-.195 3.361-1.066 5.082-1.797 3.551-1.021 7.781 1.977 10.777 3.195 3.195 7.766 3.824 11.115 1.529 3.227-2.211 6.475-5.355 9.654-9.35 1.594-2.004 1.199-4.033.162-5.072a3.33 3.33 0 0 0-.314-.271c.867-1.697.477-3.252-.398-4.125a2.745 2.745 0 0 0-.896-.598c.185-1.148-.188-2.143-.821-2.775z"/><path fill="#FFF" d="M31.549 44.203c-2.162 2.969-6.076 7.371-6.076 7.371s3.543-2.793 6.039-6.041c1.426-1.854 3.39-.107 1.746 2.143-2.015 2.756-5.195 6.488-5.195 6.488s2.178-1.635 4.529-4.529c1.138-1.398 3.072.373 1.345 2.545-2.017 2.531-5.269 6.252-9.273 8.994-5.672 3.887-13.869-3.459-10.527-10.061 2.176-4.301.334-9.082 2.59-7.875 2.564 1.373 1.373 5.766 1.373 5.766s4.275-3.598 7.939-8.361c1.525-1.984 3.633-.279 2.318 1.568-1.924 2.705-5.477 6.771-5.477 6.771s3.648-2.883 6.949-6.949c1.31-1.611 3.36-.082 1.72 2.17z"/><path fill="#D69600" d="M15.05 14.008c-9.788 5.788-3.548 7.042 5.317 3.161 5.004-2.189 1.126-6.974-5.317-3.161zM48.947 14.024c-6.441-3.813-10.318.972-5.314 3.161 8.865 3.881 15.105 2.627 5.314-3.161z"/></svg>