<svg xmlns="http://www.w3.org/2000/svg" width="64" height="64"><linearGradient id="a" gradientUnits="userSpaceOnUse" x1="-211.919" y1="275.935" x2="-211.919" y2="276.935" gradientTransform="matrix(60 0 0 -60 12747.156 16618.063)"><stop offset="0" stop-color="#ff7b00"/><stop offset=".324" stop-color="#ffae00"/><stop offset=".621" stop-color="#ffd600"/><stop offset=".856" stop-color="#fe0"/><stop offset="1" stop-color="#fff700"/></linearGradient><circle fill="url(#a)" cx="32" cy="32" r="30"/><circle fill="#FFF" cx="43" cy="31" r="7"/><circle fill="#1A1626" cx="43.002" cy="31" r="4.667"/><ellipse fill="#FFF" cx="44.208" cy="34.475" rx="2.187" ry="2.529"/><ellipse fill="#FFF" cx="41.272" cy="31" rx="1.28" ry="1.479"/><circle fill="#FFF" cx="21" cy="31" r="7"/><circle fill="#1A1626" cx="21.002" cy="31" r="4.667"/><ellipse fill="#FFF" cx="22.208" cy="34.475" rx="2.187" ry="2.529"/><ellipse fill="#FFF" cx="19.272" cy="31" rx="1.28" ry="1.479"/><path fill="#1A1626" d="M24.894 51.229c3.662-2.574 10.258-2.744 14.215 0 .916.633 2.434.193 2.094-.547-3.459-7.537-14.953-7.521-18.402 0-.341.74 1.18 1.185 2.093.547z"/><path fill="#D69600" d="M13.707 17.218c-8.634 7.399-2.271 7.551 5.786 2.189 4.547-3.024-.103-7.063-5.786-2.189zM50.292 17.233c-5.683-4.873-10.332-.835-5.784 2.189 8.057 5.363 14.42 5.212 5.784-2.189z"/><radialGradient id="b" cx="15.933" cy="47.983" r="9.632" gradientTransform="matrix(.0149 .9999 -.6745 .0101 48.06 31.57)" gradientUnits="userSpaceOnUse"><stop offset=".43" stop-color="#66e4ff"/><stop offset=".551" stop-color="#61e0ff"/><stop offset=".694" stop-color="#52d5ff"/><stop offset=".849" stop-color="#3bc2ff"/><stop offset="1" stop-color="#1caaff"/></radialGradient><path fill="url(#b)" d="M17.172 41c-3.426 4.688-5.398 9.004-5.398 12.546 0 3.012 2.42 5.454 5.4 5.454 2.982 0 5.4-2.442 5.4-5.454 0-3.542-2.027-7.934-5.402-12.546z"/><radialGradient id="c" cx="-456.976" cy="100.184" r="3.903" gradientTransform="matrix(.53 .0805 -.1698 1.1169 274.01 -24.357)" gradientUnits="userSpaceOnUse"><stop offset="0" stop-color="#d4f2ff"/><stop offset=".552" stop-color="#d1f1ff" stop-opacity=".448"/><stop offset=".883" stop-color="#c9efff" stop-opacity=".117"/><stop offset="1" stop-color="#c4eeff" stop-opacity="0"/></radialGradient><path fill="url(#c)" d="M16.869 51.067c-.366 2.407-1.59 4.218-2.731 4.045-1.143-.174-1.772-2.268-1.405-4.674.365-2.408 1.588-4.219 2.732-4.045 1.141.174 1.769 2.266 1.404 4.674z"/></svg>