<svg xmlns="http://www.w3.org/2000/svg" width="64" height="64"><path fill="#CFD8DD" d="M14.016 18.295c0 8.4 12.657 8.4 12.657 0-.001-8.399-12.657-8.399-12.657 0zM37.33 18.295c0 8.4 12.656 8.4 12.656 0 0-8.399-12.656-8.399-12.656 0z"/><path fill="#E8A329" d="M61.455 28.483c.346 2.483-.143 3.753-.143 6.378H2.688c0-2.625-.145-6.378-.145-6.378l6.23-1.999 4.788 4.597 4.273-5.575 13.214 3.778 14.152-3.46 2.611 4.208 3.078-2.749 3.328 6.613 3.311-7.121 3.927 1.708z"/><path fill="#FF4D00" d="M46.568 16.641H17.433s5.269 4.472 5.269 9.183c0 4.716-5.269 9.185-5.269 9.185h29.135s-4.965-3.443-4.965-9.185c.001-5.737 4.965-9.183 4.965-9.183z"/><path fill="#FF8801" d="M43.211 16.641h-22.42s3.673 4.54 3.673 9.183c0 4.646-3.673 9.185-3.673 9.185h22.42s-3.43-3.526-3.43-9.185c0-5.655 3.43-9.183 3.43-9.183z"/><path fill="#FFE12C" d="M40.25 16.641H23.751s3.134 4.611 3.134 9.183-3.134 9.185-3.134 9.185H40.25s-2.959-3.249-2.959-9.185c0-5.931 2.959-9.183 2.959-9.183z"/><path fill="#FF8801" d="M29.213 19.4c1.475 1.255 2.146 8.421 1.412 10.867-.781 2.605-2.888-12.121-1.412-10.867zM34.441 17.738c1.23 2.106.6 12.733-.57 16.18-1.239 3.675-.664-18.284.57-16.18z"/><linearGradient id="a" gradientUnits="userSpaceOnUse" x1="32.001" y1="64" x2="32.001" y2="1.28"><stop offset="0" stop-color="#ff7b00"/><stop offset=".324" stop-color="#ffae00"/><stop offset=".621" stop-color="#ffd600"/><stop offset=".856" stop-color="#fe0"/><stop offset="1" stop-color="#fff700"/></linearGradient><path fill="url(#a)" d="M2.544 28.483A29.723 29.723 0 0 0 2 34.134C2 50.628 15.431 64 32 64c16.566 0 30-13.372 30-29.866 0-1.933-.193-3.821-.545-5.65l-4.668 5.312-2.746-3.8L51.564 32l-3.885-5.294-5.375 2.667-2.805-1.6-4.801 5.161-2.986-2.357-2.356 3.756-6.265-7.627-7.272 3.871-3.151-2.024-3.407 4.87-3.39-5.245-3.327.305z"/><path fill="#1A1626" d="M39 54.164c0 9.63-14 9.63-14 0v-1.233c0-9.631 14-9.631 14 0v1.233z"/><linearGradient id="b" gradientUnits="userSpaceOnUse" x1="27.331" y1="48.552" x2="36.668" y2="48.552"><stop offset="0" stop-color="#cfd7e6"/><stop offset=".037" stop-color="#dae0ec"/><stop offset=".126" stop-color="#eef1f6"/><stop offset=".215" stop-color="#fbfcfd"/><stop offset=".3" stop-color="#fff"/><stop offset=".7" stop-color="#fff"/><stop offset=".785" stop-color="#fbfcfd"/><stop offset=".874" stop-color="#eef1f6"/><stop offset=".963" stop-color="#dae0ec"/><stop offset="1" stop-color="#cfd7e6"/></linearGradient><path fill="url(#b)" d="M27.332 50.063c.931-1.804 2.675-3.021 4.667-3.021 1.996 0 3.734 1.215 4.669 3.021h-9.336z"/><path fill="#FD7383" d="M28.333 58.615c1.061.796 2.281 1.261 3.668 1.261 1.384 0 2.607-.465 3.667-1.261 0 0-1.834-2.326-3.667-.816-1.836-1.51-3.668.816-3.668.816z"/><path fill="#FFF" d="M28.25 38.044c0 4.123-3.361 7.467-7.5 7.467-4.141 0-7.5-3.344-7.5-7.467 0-4.122 3.359-7.467 7.5-7.467 4.139 0 7.5 3.345 7.5 7.467z"/><path fill="#1A1626" d="M24.5 38.044c0 2.063-1.683 3.733-3.75 3.733-2.074 0-3.75-1.671-3.75-3.733s1.676-3.733 3.75-3.733c2.067 0 3.75 1.67 3.75 3.733z"/><path fill="#FFF" d="M50.75 38.044c0 4.123-3.361 7.467-7.5 7.467-4.141 0-7.5-3.344-7.5-7.467 0-4.121 3.359-7.467 7.5-7.467 4.139 0 7.5 3.346 7.5 7.467z"/><path fill="#1A1626" d="M47 38.044c0 2.063-1.684 3.733-3.75 3.733-2.074 0-3.75-1.671-3.75-3.733s1.676-3.733 3.75-3.733c2.066 0 3.75 1.67 3.75 3.733z"/><path fill="#CFD8DD" d="M40.361 6.3c0 8.399-16.724 8.399-16.724 0s16.724-8.4 16.724 0z"/><path fill="#CFD8DD" d="M39.91 14.699c0 8.399-15.82 8.399-15.82 0s15.82-8.399 15.82 0zM17.567 15.706c0 8.4-12.657 8.4-12.657 0 .001-8.397 12.657-8.397 12.657 0z"/><path fill="#CFD8DD" d="M21.897 10.924c0 8.399-12.656 8.399-12.656 0 0-8.401 12.656-8.401 12.656 0z"/><path fill="#CFD8DD" d="M29.003 7.504c0 8.399-12.658 8.399-12.658 0s12.658-8.4 12.658 0z"/><path fill="#CFD8DD" d="M27.678 14.467c0 8.4-12.655 8.4-12.655 0s12.655-8.401 12.655 0zM46.434 15.706c0 8.4 12.658 8.4 12.658 0 0-8.397-12.658-8.397-12.658 0z"/><path fill="#CFD8DD" d="M42.105 10.924c0 8.399 12.656 8.399 12.656 0 .001-8.401-12.656-8.401-12.656 0z"/><path fill="#CFD8DD" d="M34.998 7.504c0 8.399 12.656 8.399 12.656 0s-12.656-8.4-12.656 0z"/><path fill="#CFD8DD" d="M36.322 14.467c0 8.4 12.658 8.4 12.658 0s-12.658-8.401-12.658 0z"/><radialGradient id="c" cx="167.969" cy="6.3" r="6.3" gradientTransform="matrix(1.3272 0 0 1 -190.927 0)" gradientUnits="userSpaceOnUse"><stop offset=".424" stop-color="#fff"/><stop offset="1" stop-color="#fff" stop-opacity="0"/></radialGradient><path fill="url(#c)" d="M40.361 6.3c0 8.399-16.724 8.399-16.724 0s16.724-8.4 16.724 0z"/><radialGradient id="d" cx="143.36" cy="14.699" r="6.3" gradientTransform="matrix(1.2556 0 0 1 -148 0)" gradientUnits="userSpaceOnUse"><stop offset=".424" stop-color="#fff"/><stop offset="1" stop-color="#fff" stop-opacity="0"/></radialGradient><path fill="url(#d)" d="M39.91 14.699c0 8.399-15.82 8.399-15.82 0s15.82-8.399 15.82 0z"/><radialGradient id="e" cx="10.191" cy="15.707" r="6.3" gradientTransform="matrix(1.0045 0 0 1 1.003 0)" gradientUnits="userSpaceOnUse"><stop offset=".424" stop-color="#fff"/><stop offset="1" stop-color="#fff" stop-opacity="0"/></radialGradient><path fill="url(#e)" d="M17.567 15.706c0 8.4-12.657 8.4-12.657 0 .001-8.397 12.657-8.397 12.657 0z"/><radialGradient id="f" cx="14.502" cy="10.924" r="6.3" gradientTransform="matrix(1.0045 0 0 1 1.003 0)" gradientUnits="userSpaceOnUse"><stop offset=".424" stop-color="#fff"/><stop offset="1" stop-color="#fff" stop-opacity="0"/></radialGradient><path fill="url(#f)" d="M21.897 10.924c0 8.399-12.656 8.399-12.656 0 0-8.401 12.656-8.401 12.656 0z"/><radialGradient id="g" cx="21.575" cy="7.504" r="6.301" gradientTransform="matrix(1.0045 0 0 1 1.003 0)" gradientUnits="userSpaceOnUse"><stop offset=".424" stop-color="#fff"/><stop offset="1" stop-color="#fff" stop-opacity="0"/></radialGradient><path fill="url(#g)" d="M29.003 7.504c0 8.399-12.658 8.399-12.658 0s12.658-8.4 12.658 0z"/><radialGradient id="h" cx="20.258" cy="14.467" r="6.3" gradientTransform="matrix(1.0045 0 0 1 1.003 0)" gradientUnits="userSpaceOnUse"><stop offset=".424" stop-color="#fff"/><stop offset="1" stop-color="#fff" stop-opacity="0"/></radialGradient><path fill="url(#h)" d="M27.678 14.467c0 8.4-12.655 8.4-12.655 0s12.655-8.401 12.655 0z"/><radialGradient id="i" cx="1147.295" cy="15.707" r="6.301" gradientTransform="matrix(-1.0045 0 0 1 1205.179 0)" gradientUnits="userSpaceOnUse"><stop offset=".424" stop-color="#fff"/><stop offset="1" stop-color="#fff" stop-opacity="0"/></radialGradient><path fill="url(#i)" d="M46.434 15.706c0 8.4 12.658 8.4 12.658 0 0-8.397-12.658-8.397-12.658 0z"/><radialGradient id="j" cx="1151.605" cy="10.924" r="6.3" gradientTransform="matrix(-1.0045 0 0 1 1205.179 0)" gradientUnits="userSpaceOnUse"><stop offset=".424" stop-color="#fff"/><stop offset="1" stop-color="#fff" stop-opacity="0"/></radialGradient><path fill="url(#j)" d="M42.105 10.924c0 8.399 12.656 8.399 12.656 0 .001-8.401-12.656-8.401-12.656 0z"/><radialGradient id="k" cx="1158.682" cy="7.504" r="6.3" gradientTransform="matrix(-1.0045 0 0 1 1205.179 0)" gradientUnits="userSpaceOnUse"><stop offset=".424" stop-color="#fff"/><stop offset="1" stop-color="#fff" stop-opacity="0"/></radialGradient><path fill="url(#k)" d="M34.998 7.504c0 8.399 12.656 8.399 12.656 0s-12.656-8.4-12.656 0z"/><radialGradient id="l" cx="1157.361" cy="14.467" r="6.301" gradientTransform="matrix(-1.0045 0 0 1 1205.179 0)" gradientUnits="userSpaceOnUse"><stop offset=".424" stop-color="#fff"/><stop offset="1" stop-color="#fff" stop-opacity="0"/></radialGradient><path fill="url(#l)" d="M36.322 14.467c0 8.4 12.658 8.4 12.658 0s-12.658-8.401-12.658 0z"/></svg>