<svg xmlns="http://www.w3.org/2000/svg" width="64" height="64"><linearGradient id="a" gradientUnits="userSpaceOnUse" x1="32.001" y1="62" x2="32.001" y2="2.001"><stop offset="0" stop-color="#ff7b00"/><stop offset=".324" stop-color="#ffae00"/><stop offset=".621" stop-color="#ffd600"/><stop offset=".856" stop-color="#fe0"/><stop offset="1" stop-color="#fff700"/></linearGradient><circle fill="url(#a)" cx="32" cy="32" r="30"/><radialGradient id="b" cx="14.19" cy="38" r="11" gradientUnits="userSpaceOnUse"><stop offset=".1" stop-color="#ff6399"/><stop offset=".242" stop-color="#ff6595" stop-opacity=".842"/><stop offset=".39" stop-color="#ff6c88" stop-opacity=".678"/><stop offset=".54" stop-color="#ff7874" stop-opacity=".511"/><stop offset=".692" stop-color="#ff8857" stop-opacity=".342"/><stop offset=".845" stop-color="#ff9d31" stop-opacity=".172"/><stop offset=".997" stop-color="#ffb604" stop-opacity=".003"/><stop offset="1" stop-color="#ffb703" stop-opacity="0"/></radialGradient><circle opacity=".6" fill="url(#b)" cx="14.189" cy="38" r="11"/><radialGradient id="c" cx="49.81" cy="38" r="11" gradientUnits="userSpaceOnUse"><stop offset=".1" stop-color="#ff6399"/><stop offset=".242" stop-color="#ff6595" stop-opacity=".842"/><stop offset=".39" stop-color="#ff6c88" stop-opacity=".678"/><stop offset=".54" stop-color="#ff7874" stop-opacity=".511"/><stop offset=".692" stop-color="#ff8857" stop-opacity=".342"/><stop offset=".845" stop-color="#ff9d31" stop-opacity=".172"/><stop offset=".997" stop-color="#ffb604" stop-opacity=".003"/><stop offset="1" stop-color="#ffb703" stop-opacity="0"/></radialGradient><path opacity=".6" fill="url(#c)" d="M49.811 27c6.073 0 11 4.926 11 11 0 6.078-4.927 11-11 11-6.076 0-11-4.922-11-11 0-6.074 4.923-11 11-11z"/><path fill="#1A1626" d="M40.945 41.264c-5.449 4.66-12.447 4.658-17.893 0-.771-.658-1.232.055-.986.613 4.184 9.498 15.686 9.496 19.867 0 .247-.559-.212-1.272-.988-.613zM36.735 29.508c2.971-2.192 8.32-2.338 11.53 0 .742.54 1.973.165 1.697-.465-2.805-6.422-12.127-6.408-14.926 0-.274.63.961 1.01 1.699.465zM27.265 29.508c-2.971-2.192-8.32-2.338-11.53 0-.742.54-1.973.165-1.697-.465 2.805-6.422 12.127-6.408 14.926 0 .274.63-.961 1.01-1.699.465z"/><path fill="#D69600" d="M17.395 14.631c-10.644 4.001-4.716 6.319 4.688 4.037 5.309-1.288 2.319-6.674-4.688-4.037zM46.604 14.646c-7.008-2.635-9.995 2.749-4.687 4.037 9.404 2.283 15.332-.036 4.687-4.037z"/></svg>